#N canvas 467 25 1243 667 10;
#X obj 149 62 adc~;
#X obj 150 125 grapher~;
#X obj 263 62 snapshot~;
#X obj 264 91 print;
#X obj 281 5 tgl 15 0 empty empty empty 17 7 0 10 -262144 -1 -1 1 1
;
#X obj 425 174 udpsend;
#X msg 390 24 connect localhost 12000;
#X msg 423 45 disconnect;
#X obj 442 149 packOSC;
#X msg 439 120 send /cuadrado/y \$1;
#X obj 354 94 * 200;
#X obj 216 28 osc~ 10;
#X obj 283 30 metro 10;
#X obj 71 59 vsl 15 128 0 127 0 0 empty empty empty 0 -9 0 10 -262144
-1 -1 100 1;
#X connect 2 0 3 0;
#X connect 2 0 10 0;
#X connect 4 0 12 0;
#X connect 6 0 5 0;
#X connect 7 0 5 0;
#X connect 8 0 5 0;
#X connect 9 0 8 0;
#X connect 10 0 9 0;
#X connect 11 0 1 0;
#X connect 11 0 2 0;
#X connect 12 0 2 0;
#X connect 13 0 11 0;
