#N canvas 1471 25 923 565 10;
#X obj 273 138 div 2;
#X msg 95 16 3;
#X floatatom 272 164 5 0 0 0 - - -;
#X floatatom 344 161 5 0 0 0 - - -;
#X obj 308 80 + 1;
#X floatatom 307 106 5 0 0 0 - - -;
#X obj 287 2 tgl 15 0 empty empty empty 17 7 0 10 -262144 -1 -1 1 1
;
#X floatatom 308 55 5 0 0 0 - - -;
#X obj 338 209 osc~;
#X obj 332 240 dac~;
#X obj 346 133 mod 30;
#X obj 341 184 * 50;
#X obj 309 26 metro 500;
#X connect 0 0 2 0;
#X connect 3 0 11 0;
#X connect 4 0 5 0;
#X connect 5 0 0 0;
#X connect 5 0 4 1;
#X connect 5 0 10 0;
#X connect 6 0 12 0;
#X connect 7 0 4 0;
#X connect 8 0 9 0;
#X connect 8 0 9 1;
#X connect 10 0 3 0;
#X connect 11 0 8 0;
#X connect 12 0 7 0;
