#N canvas 51 355 1221 667 10;
#X obj 184 195 bng 15 250 50 0 empty empty empty 17 7 0 10 -262144
-1 -1;
#X obj 185 118 hradio 15 1 0 8 empty empty empty 0 -8 0 10 -262144
-1 -1 1;
#X floatatom 184 137 5 0 0 0 - - -;
#X obj 202 195 bng 15 250 50 0 empty empty empty 17 7 0 10 -262144
-1 -1;
#X obj 258 193 bng 15 250 50 0 empty empty empty 17 7 0 10 -262144
-1 -1;
#X obj 220 194 bng 15 250 50 0 empty empty empty 17 7 0 10 -262144
-1 -1;
#X obj 239 194 bng 15 250 50 0 empty empty empty 17 7 0 10 -262144
-1 -1;
#X obj 185 162 sel 0 1 2 3;
#X floatatom 190 23 5 0 0 0 - - -;
#X obj 188 52 + 1;
#X floatatom 188 75 5 0 0 0 - - -;
#X obj 126 13 bng 15 250 50 0 empty empty empty 17 7 0 10 -262144 -1
-1;
#X obj 187 96 mod 7;
#X obj 20 0 bng 15 250 50 0 empty empty empty 17 7 0 10 -262144 -1
-1;
#X obj 453 88 random 1000;
#X floatatom 453 114 5 0 0 0 - - -;
#X obj 453 61 bng 15 250 50 0 empty empty empty 17 7 0 10 -262144 -1
-1;
#X obj 454 136 + 200;
#X obj 454 161 osc~;
#X obj 452 188 dac~;
#X obj 31 21 metro 300;
#X connect 1 0 2 0;
#X connect 2 0 7 0;
#X connect 7 0 0 0;
#X connect 7 1 3 0;
#X connect 7 2 5 0;
#X connect 7 3 6 0;
#X connect 7 4 4 0;
#X connect 8 0 9 0;
#X connect 9 0 10 0;
#X connect 10 0 9 1;
#X connect 10 0 12 0;
#X connect 11 0 8 0;
#X connect 12 0 1 0;
#X connect 13 0 20 0;
#X connect 14 0 15 0;
#X connect 15 0 17 0;
#X connect 16 0 14 0;
#X connect 17 0 18 0;
#X connect 18 0 19 0;
#X connect 18 0 19 1;
#X connect 20 0 8 0;
#X connect 20 0 16 0;
