#N canvas 353 226 653 546 10;
#X obj 78 173 udpsend;
#X msg 9 18 connect localhost 12000;
#X msg 75 60 disconnect;
#X obj 123 124 packOSC;
#X msg 125 77 Hola mundo;
#X msg 123 102 send /piano \$1;
#X connect 1 0 0 0;
#X connect 2 0 0 0;
#X connect 3 0 0 0;
#X connect 4 0 5 0;
#X connect 5 0 3 0;
