#N canvas 425 31 1024 587 10;
#X obj 17 38 adc~;
#X obj 14 145 grapher~;
#X obj 425 174 udpsend;
#X msg 390 24 connect localhost 12000;
#X msg 423 45 disconnect;
#X obj 442 149 packOSC;
#X obj 539 154 print;
#X obj 297 67 rfft~;
#X obj 290 107 *~;
#X obj 328 107 *~;
#X obj 301 147 +~;
#N canvas 0 22 450 278 (subpatch) 0;
#X array espectro 64 float 3;
#A 0 0.109299 1.57552 0.561875 1.25039 0.684077 0.130496 0.103763 0.0950666
0.054395 0.0562256 0.0413483 0.0339509 0.0331751 0.0263404 0.0123462
0.0289995 0.0205324 0.0109807 0.0117712 0.0143266 0.0152003 0.132586
0.0102087 0.00986323 0.00916004 0.00849009 0.0088076 0.00830859 0.00772156
0.00794065 0.00798615 0.0079261 0.00790611 0 0 0 0 0 0 0 0 0 0 0 0
0 0 0 0 0 0 0 0 0 0 0 0 0 0 0 0 0 0 0;
#X coords 0 1 64 -1 200 140 1 0 0;
#X restore 447 234 graph;
#X obj 301 222 tabwrite~ espectro;
#X obj 326 189 metro 100;
#X obj 333 159 tgl 15 0 empty empty empty 17 7 0 10 -262144 -1 -1 1
1;
#X obj 287 180 /~ 64;
#X obj 229 25 osc~;
#X obj 215 74 dac~;
#X floatatom 156 55 5 0 0 0 - - -;
#X obj 118 7 hsl 128 15 0 22000 0 0 empty empty empty -2 -8 0 10 -262144
-1 -1 8350 1;
#X obj 117 87 send frecuencia;
#X obj 481 174 receive frecuencia;
#X floatatom 481 193 10 0 0 0 - - -;
#X floatatom 298 317 10 0 0 0 - - -;
#X floatatom 350 245 5 0 0 0 - - -;
#X obj 334 274 tabread espectro;
#X obj 270 272 metro 100;
#X obj 269 236 tgl 15 0 empty empty empty 17 7 0 10 -262144 -1 -1 1
1;
#X obj 291 345 s bin1;
#X obj 438 97 r bin1;
#X msg 439 120 send /bin/b1 \$1;
#X connect 0 0 1 0;
#X connect 0 0 7 0;
#X connect 3 0 2 0;
#X connect 4 0 2 0;
#X connect 5 0 2 0;
#X connect 7 0 8 0;
#X connect 7 0 8 1;
#X connect 7 1 9 0;
#X connect 7 1 9 1;
#X connect 8 0 10 0;
#X connect 9 0 10 1;
#X connect 10 0 15 0;
#X connect 13 0 12 0;
#X connect 14 0 13 0;
#X connect 15 0 12 0;
#X connect 16 0 17 0;
#X connect 16 0 17 1;
#X connect 18 0 16 0;
#X connect 18 0 20 0;
#X connect 19 0 18 0;
#X connect 21 0 22 0;
#X connect 23 0 28 0;
#X connect 24 0 25 0;
#X connect 25 0 23 0;
#X connect 26 0 24 0;
#X connect 27 0 26 0;
#X connect 29 0 30 0;
#X connect 30 0 5 0;
#X connect 30 0 6 0;
