#N canvas 947 379 733 643 12;
#X obj 146 97 soundfiler;
#X obj 153 294 tabread4~ sound;
#X obj 149 230 phasor~;
#X obj 152 262 *~;
#X obj 298 187 hsl 128 15 -1 1 0 0 empty empty empty -2 -8 0 10 -262144
-1 -1 6350 1;
#X obj 469 271 grapher~;
#X floatatom 167 151 5 0 0 0 - - -;
#X obj 166 127 expr $f1/44100;
#X obj 167 181 expr 1/$f1;
#X obj 167 208 *;
#X floatatom 284 208 5 0 0 0 - - -;
#X msg 118 192 0;
#N canvas 0 50 450 250 (subpatch) 0;
#X array sound 1.11941e+07 float 2;
#X coords 0 1 1.11941e+07 -1 200 140 1;
#X restore 482 76 graph;
#X obj 146 26 loadbang;
#X msg 294 149 0;
#X obj 238 23 inlet;
#X obj 300 24 inlet;
#X obj 151 347 outlet~;
#X msg 146 70 read -resize CumbiaSampuesana.wav sound;
#X connect 0 0 3 1;
#X connect 0 0 7 0;
#X connect 1 0 17 0;
#X connect 2 0 3 0;
#X connect 2 0 5 0;
#X connect 3 0 1 0;
#X connect 4 0 10 0;
#X connect 6 0 8 0;
#X connect 7 0 6 0;
#X connect 8 0 9 1;
#X connect 9 0 2 0;
#X connect 10 0 9 0;
#X connect 11 0 2 0;
#X connect 13 0 18 0;
#X connect 13 0 14 0;
#X connect 13 0 11 0;
#X connect 14 0 4 0;
#X connect 15 0 11 0;
#X connect 16 0 4 0;
#X connect 18 0 0 0;
