#N canvas 94 124 1766 667 10;
#X obj 65 56 osc~ 400;
#X obj 87 79 grapher~;
#X obj 50 302 dac~;
#X obj 50 264 *~ 1;
#X obj 119 231 vsl 15 40 0 1 0 0 empty empty empty 0 -9 0 10 -262144
-1 -1 0 1;
#X obj 349 74 grapher~;
#X obj 312 295 dac~;
#X obj 312 257 *~ 1;
#X obj 381 224 vsl 15 40 0 1 0 0 empty empty empty 0 -9 0 10 -262144
-1 -1 0 1;
#X obj 306 28 *~ 2;
#X obj 316 52 -~ 1;
#X obj 306 3 phasor~ 200;
#X obj 648 95 grapher~;
#X obj 570 13 phasor~ 200;
#X obj 609 43 +~;
#X msg 803 -2 0.5;
#X obj 658 8 phasor~ -200;
#X obj 557 299 dac~;
#X obj 557 261 *~ 1;
#X obj 611 219 vsl 15 40 0 1 0 0 empty empty empty 0 -9 0 10 -262144
-1 -1 0 1;
#X obj 613 65 -~ 1;
#X obj 1000 167 grapher~;
#X obj 938 40 phasor~ 200;
#X obj 937 84 clip~ 0 1;
#X obj 857 293 dac~;
#X obj 857 255 *~ 1;
#X obj 929 235 vsl 15 40 0 1 0 0 empty empty empty 0 -9 0 10 -262144
-1 -1 1250 1;
#X obj 994 110 +~;
#X obj 1049 79 clip~ 0 1;
#X obj 1049 56 *~ 2;
#X obj 1047 35 phasor~ -200;
#X msg 1039 7 0;
#X floatatom 934 4 5 0 0 0 - - -;
#X obj 998 19 * -1;
#X obj 996 133 -~ 1;
#X obj 937 63 *~ 2;
#X obj 795 48 *~ 100;
#X obj 878 80 *~ -1;
#X obj 796 26 osc~ 1;
#X obj 818 68 +~ 300;
#X connect 0 0 1 0;
#X connect 0 0 3 0;
#X connect 3 0 2 0;
#X connect 3 0 2 1;
#X connect 4 0 3 1;
#X connect 7 0 6 0;
#X connect 7 0 6 1;
#X connect 8 0 7 1;
#X connect 9 0 10 0;
#X connect 10 0 5 0;
#X connect 10 0 7 0;
#X connect 11 0 9 0;
#X connect 13 0 14 0;
#X connect 14 0 20 0;
#X connect 15 0 16 1;
#X connect 16 0 14 1;
#X connect 18 0 17 0;
#X connect 18 0 17 1;
#X connect 19 0 18 1;
#X connect 20 0 12 0;
#X connect 20 0 18 0;
#X connect 22 0 35 0;
#X connect 23 0 27 0;
#X connect 25 0 24 0;
#X connect 25 0 24 1;
#X connect 26 0 25 1;
#X connect 27 0 34 0;
#X connect 28 0 27 1;
#X connect 29 0 28 0;
#X connect 30 0 29 0;
#X connect 31 0 22 1;
#X connect 31 0 30 1;
#X connect 32 0 22 0;
#X connect 32 0 33 0;
#X connect 33 0 30 0;
#X connect 34 0 21 0;
#X connect 34 0 25 0;
#X connect 35 0 23 0;
#X connect 36 0 39 0;
#X connect 37 0 30 0;
#X connect 38 0 36 0;
#X connect 39 0 22 0;
#X connect 39 0 37 0;
