#N canvas 250 167 1161 638 12;
#X obj 198 114 rfft~;
#X obj 190 154 *~;
#X obj 227 154 *~;
#X obj 205 188 +~;
#X obj 206 217 sqrt~;
#N canvas 0 22 450 278 (subpatch) 0;
#X array \$0-espectro 32 float 2;
#X coords 0 1 32 -1 200 140 1 0 0;
#X restore 325 96 graph;
#X obj 116 225 metro 250;
#X obj 206 253 /~ 64;
#X obj 205 284 tabwrite~ \$0-espectro;
#X obj 116 197 loadbang;
#X obj 197 82 inlet~;
#X connect 0 0 1 0;
#X connect 0 0 1 1;
#X connect 0 1 2 0;
#X connect 0 1 2 1;
#X connect 1 0 3 0;
#X connect 2 0 3 1;
#X connect 3 0 4 0;
#X connect 4 0 7 0;
#X connect 6 0 8 0;
#X connect 7 0 8 0;
#X connect 9 0 6 0;
#X connect 10 0 0 0;
#X coords 0 -1 1 1 220 170 2 310 80;
