#N canvas 1280 25 1280 667 10;
#X obj 88 68 soundfiler;
#N canvas 0 22 450 278 (subpatch) 0;
#X array sound 74880 float 2;
#X coords 0 1 74880 -1 200 140 1;
#X restore 263 75 graph;
#X floatatom 88 95 5 0 0 0 - - -;
#X obj 80 154 tabplay~ sound;
#X msg 54 126 bang;
#X msg 117 125 stop;
#X obj 65 191 dac~;
#X msg 88 34 read -resize ./quack.wav sound;
#X obj 8 127 bng 15 250 50 0 empty empty empty 17 7 0 10 -262144 -1
-1;
#X obj 61 322 readsf~ 2;
#X msg 147 288 start;
#X msg 203 286 stop;
#X obj 60 364 dac~;
#X msg 34 289 open quack2.wav;
#X obj 32 259 bng 15 250 50 0 empty empty empty 17 7 0 10 -262144 -1
-1;
#X obj 62 211 tgl 15 0 empty empty empty 17 7 0 10 -262144 -1 -1 0
1;
#X obj 64 230 metro 2000;
#X obj 28 343 *~ 0.1;
#X obj 90 343 *~ 0.1;
#X obj 394 254 prueba;
#X floatatom 395 232 5 0 0 0 - - -;
#X floatatom 394 272 5 0 0 0 - - -;
#X obj 503 244 grapher~;
#X obj 239 341 grapher~;
#X connect 0 0 2 0;
#X connect 3 0 6 0;
#X connect 4 0 3 0;
#X connect 5 0 3 0;
#X connect 7 0 0 0;
#X connect 8 0 3 0;
#X connect 9 0 17 0;
#X connect 9 1 18 0;
#X connect 10 0 9 0;
#X connect 11 0 9 0;
#X connect 13 0 9 0;
#X connect 14 0 13 0;
#X connect 14 0 10 0;
#X connect 15 0 16 0;
#X connect 16 0 14 0;
#X connect 17 0 12 0;
#X connect 18 0 12 1;
#X connect 18 0 22 0;
#X connect 19 0 21 0;
#X connect 20 0 19 0;
