#N canvas 961 25 1254 438 10;
#X obj 105 116 expr $f1;
#X floatatom 110 92 5 0 0 0 - - -;
#X floatatom 108 146 5 0 0 0 - - -;
#X floatatom 187 91 5 0 0 0 - - -;
#X floatatom 188 133 5 0 0 0 - - -;
#X obj 187 111 expr pow($f1 \, 2);
#X floatatom 301 90 5 0 0 0 - - -;
#X floatatom 302 132 5 0 0 0 - - -;
#X obj 301 110 expr pow($f1 \, 2+$f1);
#X floatatom 435 88 5 0 0 0 - - -;
#X floatatom 436 130 5 0 0 0 - - -;
#X obj 435 108 expr 1-pow(2 \, $f1);
#X connect 0 0 2 0;
#X connect 1 0 0 0;
#X connect 3 0 5 0;
#X connect 5 0 4 0;
#X connect 6 0 8 0;
#X connect 8 0 7 0;
#X connect 9 0 11 0;
#X connect 11 0 10 0;
