#N canvas 1281 25 841 667 10;
#X obj 133 66 f;
#X obj 133 88 + 1;
#X floatatom 233 106 5 0 0 0 - - -;
#X obj 233 80 + 1;
#X obj 190 38 bng 15 250 50 0 empty empty empty 17 7 0 10 -262144 -1
-1;
#X floatatom 132 111 5 0 0 0 - - -;
#X floatatom 232 59 5 0 0 0 - - -;
#X obj 191 17 metro 400;
#X obj 117 13 bng 15 250 50 0 empty empty empty 17 7 0 10 -262144 -1
-1;
#X floatatom 135 155 5 0 0 0 - - -;
#X obj 137 177 expr (2+$f1);
#X floatatom 136 203 5 0 0 0 - - -;
#X floatatom 226 200 5 0 0 0 - - -;
#X obj 228 173 expr pow(2 \, 2);
#X obj 229 146 bng 15 250 50 0 empty empty empty 17 7 0 10 -262144
-1 -1;
#X connect 0 0 1 0;
#X connect 1 0 0 1;
#X connect 1 0 5 0;
#X connect 2 0 3 1;
#X connect 3 0 2 0;
#X connect 4 0 0 0;
#X connect 4 0 6 0;
#X connect 6 0 3 0;
#X connect 7 0 4 0;
#X connect 8 0 7 0;
#X connect 9 0 10 0;
#X connect 10 0 11 0;
#X connect 13 0 12 0;
#X connect 14 0 13 0;
