#N canvas 1441 25 769 446 10;
#X obj 129 75 s dato;
#X obj 126 107 r dato;
#X floatatom 130 54 5 0 0 0 - - -;
#X floatatom 125 130 5 0 0 0 - - -;
#X obj 37 82 send wav;
#X obj 238 19 trigger bang bang;
#X obj 240 43 t b b;
#X obj 189 104 r dato;
#X floatatom 188 127 5 0 0 0 - - -;
#X obj 27 110 receive wa;
#X floatatom 41 57 5 0 0 0 - - -;
#X floatatom 26 134 5 0 0 0 - - -;
#X obj 273 86 osc~ 440;
#X obj 271 114 s~ sound;
#X obj 269 136 r~ sound;
#X connect 1 0 3 0;
#X connect 2 0 0 0;
#X connect 7 0 8 0;
#X connect 9 0 11 0;
#X connect 10 0 4 0;
#X connect 12 0 13 0;
