#N canvas 1440 25 1009 547 10;
#X obj 180 244 osc~;
#X obj 45 152 bng 15 250 50 0 empty empty empty 17 7 0 10 -262144 -1
-1;
#X obj 66 151 bng 15 250 50 0 empty empty empty 17 7 0 10 -262144 -1
-1;
#X obj 88 151 bng 15 250 50 0 empty empty empty 17 7 0 10 -262144 -1
-1;
#X obj 114 150 bng 15 250 50 0 empty empty empty 17 7 0 10 -262144
-1 -1;
#X obj 141 149 bng 15 250 50 0 empty empty empty 17 7 0 10 -262144
-1 -1;
#X floatatom 56 74 5 0 0 0 - - -;
#X obj 58 49 f;
#X obj 103 47 + 1;
#X obj 64 16 metro 440;
#X obj 34 25 tgl 15 0 empty empty empty 17 7 0 10 -262144 -1 -1 1 1
;
#X msg 248 53 bang;
#X msg 312 48 float 3.1416;
#X obj 246 111 bng 15 250 50 0 empty empty empty 17 7 0 10 -262144
-1 -1;
#X floatatom 285 111 5 0 0 0 - - -;
#X msg 422 45 pins 1;
#X obj 247 83 route bang float pins;
#X obj 342 112 print;
#X obj 434 106 print;
#X msg 380 14 list 1 2 3 4;
#X msg 309 15 symbol;
#X msg 18 184 32.7;
#X obj 175 269 dac~;
#X msg 60 183 65.41;
#X msg 106 182 130.81;
#X msg 155 181 261.63;
#X obj 51 120 select 0 1 2 3 4 5 6 7 8;
#X msg 209 179 523.25;
#X msg 270 176 1046.5;
#X obj 168 147 bng 15 250 50 0 empty empty empty 17 7 0 10 -262144
-1 -1;
#X obj 54 97 mod 8;
#X obj 200 145 bng 15 250 50 0 empty empty empty 17 7 0 10 -262144
-1 -1;
#X msg 345 173 2093;
#X msg 414 171 4186.01;
#X obj 237 143 bng 15 250 50 0 empty empty empty 17 7 0 10 -262144
-1 -1;
#X connect 0 0 22 0;
#X connect 0 0 22 1;
#X connect 1 0 21 0;
#X connect 2 0 23 0;
#X connect 3 0 24 0;
#X connect 4 0 25 0;
#X connect 5 0 27 0;
#X connect 6 0 30 0;
#X connect 7 0 8 0;
#X connect 7 0 6 0;
#X connect 8 0 7 1;
#X connect 9 0 7 0;
#X connect 10 0 9 0;
#X connect 11 0 16 0;
#X connect 12 0 16 0;
#X connect 15 0 16 0;
#X connect 16 0 13 0;
#X connect 16 1 14 0;
#X connect 16 2 17 0;
#X connect 16 3 18 0;
#X connect 19 0 16 0;
#X connect 20 0 16 0;
#X connect 21 0 0 0;
#X connect 23 0 0 0;
#X connect 24 0 0 0;
#X connect 25 0 0 0;
#X connect 26 0 1 0;
#X connect 26 1 2 0;
#X connect 26 2 3 0;
#X connect 26 3 4 0;
#X connect 26 4 5 0;
#X connect 26 5 29 0;
#X connect 26 6 31 0;
#X connect 26 7 34 0;
#X connect 27 0 0 0;
#X connect 28 0 0 0;
#X connect 29 0 28 0;
#X connect 30 0 26 0;
#X connect 31 0 32 0;
#X connect 32 0 0 0;
#X connect 33 0 0 0;
#X connect 34 0 33 0;
