#N canvas 1440 25 1280 667 10;
#X obj 247 271 osc~;
#X obj 126 151 bng 15 250 50 0 empty empty empty 17 7 0 10 -262144
-1 -1;
#X obj 147 150 bng 15 250 50 0 empty empty empty 17 7 0 10 -262144
-1 -1;
#X obj 169 150 bng 15 250 50 0 empty empty empty 17 7 0 10 -262144
-1 -1;
#X obj 195 149 bng 15 250 50 0 empty empty empty 17 7 0 10 -262144
-1 -1;
#X obj 222 148 bng 15 250 50 0 empty empty empty 17 7 0 10 -262144
-1 -1;
#X floatatom 137 73 5 0 0 0 - - -;
#X obj 139 48 f;
#X obj 184 46 + 1;
#X obj 145 15 metro 440;
#X obj 115 24 tgl 15 0 empty empty empty 17 7 0 10 -262144 -1 -1 1
1;
#X msg 329 52 bang;
#X msg 393 47 float 3.1416;
#X obj 327 110 bng 15 250 50 0 empty empty empty 17 7 0 10 -262144
-1 -1;
#X floatatom 366 110 5 0 0 0 - - -;
#X msg 503 44 pins 1;
#X obj 328 82 route bang float pins;
#X obj 423 111 print;
#X obj 515 105 print;
#X msg 461 13 list 1 2 3 4;
#X msg 390 14 symbol;
#X obj 250 290 dac~;
#X obj 132 119 select 0 1 2 3 4 5 6 7 8;
#X obj 249 146 bng 15 250 50 0 empty empty empty 17 7 0 10 -262144
-1 -1;
#X obj 135 96 mod 8;
#X obj 281 144 bng 15 250 50 0 empty empty empty 17 7 0 10 -262144
-1 -1;
#X obj 318 142 bng 15 250 50 0 empty empty empty 17 7 0 10 -262144
-1 -1;
#X obj 120 196 * 1;
#X floatatom 119 221 5 0 0 0 - - -;
#X obj 161 200 * 2;
#X floatatom 161 220 5 0 0 0 - - -;
#X obj 160 181 f;
#X obj 199 199 * 2;
#X floatatom 199 219 5 0 0 0 - - -;
#X obj 199 180 f;
#X obj 243 198 * 2;
#X floatatom 243 218 5 0 0 0 - - -;
#X obj 242 179 f;
#X obj 283 196 * 2;
#X floatatom 283 216 5 0 0 0 - - -;
#X obj 282 177 f;
#X obj 322 195 * 2;
#X floatatom 322 215 5 0 0 0 - - -;
#X obj 322 176 f;
#X obj 364 193 * 2;
#X floatatom 364 213 5 0 0 0 - - -;
#X obj 363 174 f;
#X obj 404 192 * 2;
#X floatatom 404 212 5 0 0 0 - - -;
#X obj 403 173 f;
#X obj 43 162 mtof;
#X floatatom 43 181 5 0 0 0 - - -;
#X obj 46 143 hsl 25 15 0 127 0 0 empty empty empty -2 -8 0 10 -262144
-1 -1 650 1;
#X obj 72 8 hsl 25 15 0 1000 0 0 empty empty empty -2 -8 0 10 -262144
-1 -1 850 1;
#X connect 0 0 21 0;
#X connect 0 0 21 1;
#X connect 1 0 27 0;
#X connect 2 0 31 0;
#X connect 3 0 34 0;
#X connect 4 0 37 0;
#X connect 5 0 40 0;
#X connect 6 0 24 0;
#X connect 7 0 8 0;
#X connect 7 0 6 0;
#X connect 8 0 7 1;
#X connect 9 0 7 0;
#X connect 10 0 9 0;
#X connect 11 0 16 0;
#X connect 12 0 16 0;
#X connect 15 0 16 0;
#X connect 16 0 13 0;
#X connect 16 1 14 0;
#X connect 16 2 17 0;
#X connect 16 3 18 0;
#X connect 19 0 16 0;
#X connect 20 0 16 0;
#X connect 22 0 1 0;
#X connect 22 1 2 0;
#X connect 22 2 3 0;
#X connect 22 3 4 0;
#X connect 22 4 5 0;
#X connect 22 5 23 0;
#X connect 22 6 25 0;
#X connect 22 7 26 0;
#X connect 23 0 43 0;
#X connect 24 0 22 0;
#X connect 25 0 46 0;
#X connect 26 0 49 0;
#X connect 27 0 28 0;
#X connect 28 0 0 0;
#X connect 28 0 31 1;
#X connect 29 0 30 0;
#X connect 30 0 34 1;
#X connect 30 0 0 0;
#X connect 31 0 29 0;
#X connect 32 0 33 0;
#X connect 33 0 37 1;
#X connect 33 0 0 0;
#X connect 34 0 32 0;
#X connect 35 0 36 0;
#X connect 36 0 40 1;
#X connect 36 0 0 0;
#X connect 37 0 35 0;
#X connect 38 0 39 0;
#X connect 39 0 43 1;
#X connect 39 0 0 0;
#X connect 40 0 38 0;
#X connect 41 0 42 0;
#X connect 42 0 46 1;
#X connect 42 0 0 0;
#X connect 43 0 41 0;
#X connect 44 0 45 0;
#X connect 45 0 49 1;
#X connect 45 0 0 0;
#X connect 46 0 44 0;
#X connect 47 0 48 0;
#X connect 48 0 0 0;
#X connect 49 0 47 0;
#X connect 50 0 51 0;
#X connect 51 0 27 0;
#X connect 52 0 50 0;
#X connect 53 0 9 0;
