#N canvas 1920 -5 450 300 10;
#X obj 97 30 mtof;
#X floatatom 97 49 5 0 0 0 - - -;
#X obj 97 10 hsl 25 15 0 127 0 0 empty empty empty -2 -8 0 10 -262144
-1 -1 2306 1;
#X obj 96 71 f;
#X obj 172 68 * 2;
#X floatatom 96 92 5 0 0 0 - - -;
#X floatatom 172 90 5 0 0 0 - - -;
#X obj 96 117 osc~;
#X obj 170 116 osc~;
#X obj 87 366 *~ 0.5;
#X obj 87 386 dac~;
#X obj 216 129 vsl 15 50 0 1 0 0 empty empty empty 0 -9 0 10 -262144
-1 -1 3750 1;
#X obj 128 139 vsl 15 50 0 1 0 0 empty empty empty 0 -9 0 10 -262144
-1 -1 4550 1;
#X obj 127 235 +;
#X floatatom 126 308 5 0 0 0 - - -;
#X obj 91 331 /~;
#X obj 307 124 vsl 15 50 0 1 0 0 empty empty empty 0 -9 0 10 -262144
-1 -1 3450 1;
#X obj 298 249 t b f;
#X obj 209 231 +;
#X obj 207 252 t b f;
#X obj 214 190 t f f;
#X obj 172 215 *~;
#X obj 305 184 t f f;
#X obj 302 224 +;
#X obj 263 205 *~;
#X obj 268 60 * 2;
#X floatatom 268 82 5 0 0 0 - - -;
#X obj 266 108 osc~;
#X obj 94 292 +~;
#X obj 171 288 +~;
#X obj 404 117 vsl 15 50 0 1 0 0 empty empty empty 0 -9 0 10 -262144
-1 -1 2800 1;
#X obj 395 242 t b f;
#X obj 402 177 t f f;
#X obj 399 217 +;
#X obj 360 198 *~;
#X obj 365 53 * 2;
#X floatatom 365 75 5 0 0 0 - - -;
#X obj 363 101 osc~;
#X obj 491 110 vsl 15 50 0 1 0 0 empty empty empty 0 -9 0 10 -262144
-1 -1 2000 1;
#X obj 482 235 t b f;
#X obj 489 170 t f f;
#X obj 486 210 +;
#X obj 447 191 *~;
#X obj 452 46 * 2;
#X floatatom 452 68 5 0 0 0 - - -;
#X obj 450 94 osc~;
#X obj 587 102 vsl 15 50 0 1 0 0 empty empty empty 0 -9 0 10 -262144
-1 -1 1300 1;
#X obj 578 227 t b f;
#X obj 585 162 t f f;
#X obj 582 202 +;
#X obj 543 183 *~;
#X obj 548 38 * 2;
#X floatatom 548 60 5 0 0 0 - - -;
#X obj 546 86 osc~;
#X obj 264 284 +~;
#X obj 361 279 +~;
#X obj 448 275 +~;
#X obj 544 270 +~;
#X obj 8 75 f;
#X obj 42 72 + 1;
#X obj 8 98 mod 127;
#X obj 6 121 s mval;
#X obj 10 49 metro 500;
#X obj 11 28 tgl 15 0 empty empty empty 17 7 0 10 -262144 -1 -1 1 1
;
#X obj 95 -8 r mval;
#X connect 0 0 1 0;
#X connect 1 0 3 0;
#X connect 2 0 0 0;
#X connect 3 0 4 0;
#X connect 3 0 5 0;
#X connect 4 0 6 0;
#X connect 4 0 25 0;
#X connect 5 0 7 0;
#X connect 6 0 8 0;
#X connect 7 0 28 0;
#X connect 8 0 21 0;
#X connect 9 0 10 0;
#X connect 9 0 10 1;
#X connect 11 0 20 0;
#X connect 12 0 13 0;
#X connect 13 0 14 0;
#X connect 14 0 15 1;
#X connect 15 0 9 0;
#X connect 16 0 22 0;
#X connect 17 0 18 0;
#X connect 17 1 18 1;
#X connect 18 0 19 0;
#X connect 19 0 13 0;
#X connect 19 1 13 1;
#X connect 20 0 21 1;
#X connect 20 1 18 0;
#X connect 21 0 29 0;
#X connect 22 0 24 1;
#X connect 22 1 23 0;
#X connect 23 0 17 0;
#X connect 24 0 54 0;
#X connect 25 0 26 0;
#X connect 25 0 35 0;
#X connect 26 0 27 0;
#X connect 27 0 24 0;
#X connect 28 0 15 0;
#X connect 29 0 28 1;
#X connect 30 0 32 0;
#X connect 31 0 23 0;
#X connect 31 1 23 1;
#X connect 32 0 34 1;
#X connect 32 1 33 0;
#X connect 33 0 31 0;
#X connect 34 0 55 0;
#X connect 35 0 36 0;
#X connect 35 0 43 0;
#X connect 36 0 37 0;
#X connect 37 0 34 0;
#X connect 38 0 40 0;
#X connect 39 0 33 0;
#X connect 39 1 33 1;
#X connect 40 0 42 1;
#X connect 40 1 41 0;
#X connect 41 0 39 0;
#X connect 42 0 56 0;
#X connect 43 0 44 0;
#X connect 43 0 51 0;
#X connect 44 0 45 0;
#X connect 45 0 42 0;
#X connect 46 0 48 0;
#X connect 47 0 41 0;
#X connect 47 1 41 1;
#X connect 48 0 50 1;
#X connect 48 1 49 0;
#X connect 49 0 47 0;
#X connect 50 0 57 0;
#X connect 51 0 52 0;
#X connect 52 0 53 0;
#X connect 53 0 50 0;
#X connect 54 0 29 1;
#X connect 55 0 54 1;
#X connect 56 0 55 1;
#X connect 57 0 56 1;
#X connect 58 0 59 0;
#X connect 58 0 60 0;
#X connect 59 0 58 1;
#X connect 60 0 61 0;
#X connect 62 0 58 0;
#X connect 63 0 62 0;
#X connect 64 0 2 0;
