#N canvas 1109 129 1493 461 10;
#X obj 167 106 +;
#X floatatom 166 139 5 0 0 0 - - -;
#X obj 250 3 bng 15 250 50 0 empty empty empty 17 7 0 10 -262144 -1
-1;
#X obj 221 103 -;
#X floatatom 219 136 5 0 0 0 - - -;
#X floatatom 263 135 5 0 0 0 - - -;
#X obj 266 102 *;
#X floatatom 316 134 5 0 0 0 - - -;
#X obj 318 101 /;
#X msg 269 48 10;
#X floatatom 206 32 5 0 0 0 - - -;
#X floatatom 270 26 5 0 0 0 - - -;
#X msg 204 52 1;
#X obj 421 94 * 2;
#X obj 475 93 + 3;
#X obj 527 91 - 3;
#X obj 574 90 / 7;
#X floatatom 417 129 5 0 0 0 - - -;
#X floatatom 470 126 5 0 0 0 - - -;
#X floatatom 522 122 5 0 0 0 - - -;
#X floatatom 577 121 5 0 0 0 - - -;
#X floatatom 505 45 5 0 0 0 - - -;
#X connect 0 0 1 0;
#X connect 3 0 4 0;
#X connect 6 0 5 0;
#X connect 8 0 7 0;
#X connect 9 0 0 1;
#X connect 9 0 3 1;
#X connect 9 0 8 1;
#X connect 9 0 6 1;
#X connect 10 0 12 0;
#X connect 11 0 9 0;
#X connect 12 0 0 0;
#X connect 12 0 3 0;
#X connect 12 0 8 0;
#X connect 12 0 6 0;
#X connect 13 0 17 0;
#X connect 14 0 18 0;
#X connect 15 0 19 0;
#X connect 16 0 20 0;
#X connect 21 0 13 0;
#X connect 21 0 14 0;
#X connect 21 0 15 0;
#X connect 21 0 16 0;
