#N canvas 1440 25 1280 667 12;
#X floatatom 71 200 5 0 0 0 - - -;
#X obj 110 257 +;
#X floatatom 110 282 5 0 0 0 - - -;
#X floatatom 159 198 5 0 0 0 - - -;
#X obj 76 70 bng 19 250 50 0 empty empty empty 0 -10 0 12 -262144 -1
-1;
#X obj 72 172 + 2;
#X obj 160 170 + 2;
#X msg 73 143 2;
#X msg 161 141 1;
#X obj 70 226 * 3;
#X obj 158 225 * 3;
#X obj 239 167 t b b;
#X obj 74 102 trigger bang bang;
#X obj 257 252 print derecha;
#X obj -14 254 print izquierda;
#X obj 320 85 print bang;
#X connect 0 0 9 0;
#X connect 1 0 2 0;
#X connect 3 0 10 0;
#X connect 4 0 15 0;
#X connect 4 0 12 0;
#X connect 5 0 0 0;
#X connect 6 0 3 0;
#X connect 7 0 5 0;
#X connect 8 0 6 0;
#X connect 9 0 1 0;
#X connect 9 0 14 0;
#X connect 10 0 1 1;
#X connect 10 0 13 0;
#X connect 12 0 7 0;
#X connect 12 1 8 0;
