#N canvas 0 25 1024 587 12;
#X obj 215 143 unpackOSC;
#X obj 201 320 select 0 1 2 3 4 5 6 7;
#X obj 200 558 dac~;
#X obj 360 480 hsl 128 15 0 1 0 0 empty empty empty -2 -8 0 10 -262144
-1 -1 12700 1;
#X obj 200 527 *~;
#X obj 207 111 udpreceive 32000;
#X obj 207 181 print;
#X obj 144 213 routeOSC /piano;
#X obj 204 248 f;
#X obj 327 248 + 1;
#X obj 112 271 bng 15 250 50 0 empty empty empty 17 7 0 10 -262144
-1 -1;
#X obj 599 533 soundfiler;
#N canvas 0 22 450 278 (subpatch) 0;
#X array note1 46080 float 2;
#X coords 0 1 46080 -1 200 140 1 0 0;
#X restore 1018 216 graph;
#N canvas 0 22 450 278 (subpatch) 0;
#X array note2 46080 float 2;
#X coords 0 1 46080 -1 200 140 1 0 0;
#X restore 1021 392 graph;
#N canvas 0 22 450 278 (subpatch) 0;
#X array note3 46080 float 2;
#X coords 0 1 46080 -1 200 140 1 0 0;
#X restore 1020 558 graph;
#N canvas 0 22 450 278 (subpatch) 0;
#X array note4 46080 float 2;
#X coords 0 1 46080 -1 200 140 1 0 0;
#X restore 1019 726 graph;
#X obj 600 596 soundfiler;
#X obj 594 675 soundfiler;
#X obj 603 760 soundfiler;
#X obj 202 281 mod 4;
#X obj 44 388 tabplay~ note1;
#X obj 166 385 tabplay~ note2;
#X obj 289 386 tabplay~ note3;
#X obj 85 335 bng 15 250 50 0 empty empty empty 17 7 0 10 -262144 -1
-1;
#X obj 405 386 tabplay~ note4;
#X obj 197 487 +~;
#X obj 474 198 tgl 15 0 empty empty empty 17 7 0 10 -262144 -1 -1 0
1;
#X obj 474 227 metro 100;
#X msg 599 507 read -resize quack2.wav note1;
#X msg 600 570 read -resize quack2.wav note2;
#X msg 594 649 read -resize quack2.wav note3;
#X msg 603 734 read -resize quack2.wav note4;
#X obj 210 350 bng 15 250 50 0 empty empty empty 17 7 0 10 -262144
-1 -1;
#X connect 0 0 6 0;
#X connect 0 0 7 0;
#X connect 1 0 23 0;
#X connect 1 1 32 0;
#X connect 1 2 22 0;
#X connect 1 3 24 0;
#X connect 3 0 4 1;
#X connect 4 0 2 0;
#X connect 5 0 0 0;
#X connect 7 0 10 0;
#X connect 8 0 9 0;
#X connect 8 0 19 0;
#X connect 9 0 8 1;
#X connect 10 0 8 0;
#X connect 19 0 1 0;
#X connect 20 0 25 0;
#X connect 21 0 25 0;
#X connect 22 0 25 0;
#X connect 23 0 20 0;
#X connect 24 0 25 0;
#X connect 25 0 4 0;
#X connect 26 0 27 0;
#X connect 27 0 10 0;
#X connect 28 0 11 0;
#X connect 29 0 16 0;
#X connect 30 0 17 0;
#X connect 31 0 18 0;
#X connect 32 0 21 0;
