#N canvas 705 243 550 412 10;
#X obj 174 181 arduino;
#X msg 91 51 devices;
#X floatatom 15 72 5 0 0 0 - - -;
#X msg 15 98 open \$1;
#X msg 73 99 open 2;
#X msg 72 140 close;
#X msg 208 108 pinMode 11 input;
#X msg 218 131 pinMode 12 input;
#X obj 129 228 route digital;
#X obj 130 251 route 11 12;
#X obj 161 282 bng 15 250 50 0 empty empty empty 17 7 0 10 -262144
-1 -1;
#X obj 128 282 bng 15 250 50 0 empty empty empty 17 7 0 10 -262144
-1 -1;
#X obj 44 342 bng 24 250 50 0 empty empty empty 17 7 0 10 -4034 -1
-1;
#X msg 44 371 0 \, 1 200;
#X obj 44 400 line~;
#X text 141 384 <- Ramp Generator;
#X obj 44 508 -~ 0.25;
#X obj 44 537 cos~;
#X obj 44 468 *~ 20;
#X obj 44 434 sqrt~;
#X obj 44 571 lop~ 1000;
#X text 118 525 <- Sine Waveshaper;
#X text 104 434 <- Pitch Bend;
#X text 104 468 <- Pitch;
#X obj 48 595 dac~;
#X obj 316 366 bng 24 250 50 0 empty empty empty 17 7 0 10 -4034 -1
-1;
#X obj 316 397 t b b;
#X msg 315 422 1 \, 0 100;
#X obj 316 442 line~;
#X obj 315 464 pow~ 4;
#X obj 317 498 *~;
#X obj 432 445 line~;
#X obj 432 460 pow~ 4;
#X obj 432 493 *~;
#X obj 508 422 noise~;
#X msg 432 421 1 \, 0 200;
#X obj 317 512 +~;
#X obj 508 445 hip~ 3000;
#X obj 508 460 bp~ 5000 2;
#X obj 317 538 lop~ 4000;
#X obj 360 465 osc~ 200;
#X text 485 401 // SNARES;
#X text 352 450 // DRUM;
#X text 348 370 –– SNARE DRUM –––––––––––––––––––––
;
#X obj 316 574 dac~;
#X text 95 344 –– BASS DRUM –––––––––––––
;
#X connect 0 0 8 0;
#X connect 1 0 0 0;
#X connect 2 0 3 0;
#X connect 3 0 0 0;
#X connect 4 0 0 0;
#X connect 5 0 0 0;
#X connect 6 0 0 0;
#X connect 7 0 0 0;
#X connect 8 0 9 0;
#X connect 9 0 11 0;
#X connect 9 1 10 0;
#X connect 10 0 25 0;
#X connect 11 0 12 0;
#X connect 12 0 13 0;
#X connect 13 0 14 0;
#X connect 14 0 19 0;
#X connect 16 0 17 0;
#X connect 17 0 20 0;
#X connect 18 0 16 0;
#X connect 19 0 18 0;
#X connect 20 0 24 0;
#X connect 20 0 24 1;
#X connect 25 0 26 0;
#X connect 26 0 27 0;
#X connect 26 1 35 0;
#X connect 27 0 28 0;
#X connect 28 0 29 0;
#X connect 29 0 30 0;
#X connect 30 0 36 0;
#X connect 31 0 32 0;
#X connect 32 0 33 0;
#X connect 33 0 36 1;
#X connect 34 0 37 0;
#X connect 35 0 31 0;
#X connect 36 0 39 0;
#X connect 37 0 38 0;
#X connect 38 0 33 1;
#X connect 39 0 44 0;
#X connect 39 0 44 1;
#X connect 40 0 30 1;
