#N canvas 423 25 491 546 10;
#X obj 78 173 udpsend;
#X msg 9 18 connect localhost 12000;
#X msg 75 60 disconnect;
#X floatatom 123 85 5 0 0 0 - - -;
#X msg 123 102 send /espacio \$1;
#X obj 123 124 packOSC;
#X connect 1 0 0 0;
#X connect 2 0 0 0;
#X connect 3 0 4 0;
#X connect 4 0 5 0;
#X connect 5 0 0 0;
