#N canvas 917 174 844 473 10;
#X obj 88 67 osc~ 440;
#X obj 89 105 *~;
#X obj 190 47 +~ 1;
#X obj 190 70 /~ 2;
#X obj 198 114 grapher~;
#X obj 190 22 osc~ 100;
#X obj 86 143 dac~;
#X obj 29 9 vsl 15 128 0.001 50 0 0 empty empty empty 0 -9 0 10 -262144
-1 -1 300 1;
#X obj 5 12 vsl 15 128 250 2000 0 0 empty empty empty 0 -9 0 10 -262144
-1 -1 8250 1;
#X connect 0 0 1 0;
#X connect 1 0 6 0;
#X connect 1 0 6 1;
#X connect 2 0 3 0;
#X connect 3 0 4 0;
#X connect 3 0 1 1;
#X connect 5 0 2 0;
#X connect 7 0 5 0;
#X connect 8 0 0 0;
