#N canvas 1391 42 1269 667 10;
#X obj -28 254 grapher~;
#X obj 92 170 osc~ 440;
#X obj 503 25 vsl 15 128 0 100 0 0 empty empty empty 0 -9 0 10 -262144
-1 -1 350 1;
#X obj 101 49 osc~ 40;
#X obj 121 205 dac~;
#X obj 267 17 grapher~;
#X obj 257 232 grapher~;
#X obj 102 82 +~ 1;
#X obj 104 141 +~ 1000;
#X obj 103 115 *~ 500;
#X obj 503 166 s fm;
#X obj 100 27 r fm;
#X obj 563 21 vsl 15 128 500 2000 0 0 empty empty empty 0 -9 0 10 -262144
-1 -1 6050 1;
#X obj 561 158 s offset;
#X obj 159 117 r offset;
#X obj 619 20 vsl 15 128 10 500 0 0 empty empty empty 0 -9 0 10 -262144
-1 -1 1000 1;
#X obj 619 161 s amp;
#X obj 160 82 r amp;
#X connect 1 0 0 0;
#X connect 1 0 4 0;
#X connect 1 0 4 1;
#X connect 2 0 10 0;
#X connect 3 0 5 0;
#X connect 3 0 7 0;
#X connect 7 0 6 0;
#X connect 7 0 9 0;
#X connect 8 0 1 0;
#X connect 9 0 8 0;
#X connect 11 0 3 0;
#X connect 12 0 13 0;
#X connect 14 0 8 1;
#X connect 15 0 16 0;
#X connect 17 0 9 1;
