#N canvas 1291 25 1269 667 10;
#X obj 251 170 osc~ 440;
#X obj 9 20 vsl 15 128 0 100 0 0 empty empty empty 0 -9 0 10 -262144
-1 -1 100 1;
#X obj 250 54 osc~ 40;
#X obj 251 87 +~ 1;
#X obj 253 146 +~ 1000;
#X obj 252 120 *~ 500;
#X obj 9 161 s fm;
#X obj 249 32 r fm;
#X obj 69 16 vsl 15 128 500 2000 0 0 empty empty empty 0 -9 0 10 -262144
-1 -1 100 1;
#X obj 67 153 s offset;
#X obj 308 122 r offset;
#X obj 125 15 vsl 15 128 10 500 0 0 empty empty empty 0 -9 0 10 -262144
-1 -1 2200 1;
#X obj 125 156 s amp;
#X obj 309 87 r amp;
#X obj 251 191 outlet~;
#X connect 0 0 14 0;
#X connect 1 0 6 0;
#X connect 2 0 3 0;
#X connect 3 0 5 0;
#X connect 4 0 0 0;
#X connect 5 0 4 0;
#X connect 7 0 2 0;
#X connect 8 0 9 0;
#X connect 10 0 4 1;
#X connect 11 0 12 0;
#X connect 13 0 5 1;
#X coords 0 -1 1 1 150 170 1 0 0;
